<?xml version="1.0" encoding="utf-8"?>
<!-- Generator: Adobe Adobe Illustrator 24.2.0, SVG Export Plug-In . SVG Version: 6.00 Build 0)  -->
<svg version="1.1" id="Layer_1" xmlns="http://www.w3.org/2000/svg" xmlns:xlink="http://www.w3.org/1999/xlink" x="0px" y="0px"
	 viewBox="0 0 880 175" style="enable-background:new 0 0 880 175;" xml:space="preserve">
<style type="text/css">
	.st0{fill:#FF00E5;}
	.st1 {stroke: #fff;fill:#fff;}
</style>
<g>
	<path class="st1" d="M59.39,161.48c-1.23-0.88-1.94-1.58-1.41-2.82l1.41-2.11c0.53-0.88,1.58-1.06,2.29-0.53c7.39,4.75,16.55,6.87,26.05,6.87
		c19.36,0,36.79-8.8,36.79-33.8v-17.43c-6.86,12.67-19.01,20.42-35.91,20.42c-24.82,0-42.77-18.13-42.77-44.01
		c0-25.52,17.95-43.83,42.42-43.83c17.07,0,29.57,7.92,36.44,21.12V48.65c0-1.58,0.53-2.29,2.11-2.29h1.94
		c1.58,0,1.94,0.7,1.94,2.29v81.5c0,26.05-20.07,38.55-43.13,38.55C75.59,168.7,65.2,165.18,59.39,161.48z M88.79,126.1
		c21.12,0,36.09-14.43,36.09-37.32c0-23.41-14.96-38.55-36.09-38.55c-20.95,0-37.14,14.79-37.14,37.85
		C51.65,111.49,67.84,126.1,88.79,126.1z"/>
	<path class="st1" d="M160.6,130.33V48.65c0-1.58,0.53-2.29,2.11-2.29h1.23c1.94,0,2.46,0.7,2.29,2.46l0.18,9.15
		c3.52-7.39,9.68-13.73,20.77-13.73c3.17,0,6.16,0.53,7.92,1.58c0.88,0.53,1.23,1.06,1.23,2.64v1.06c0,1.76-1.23,2.11-2.99,1.58
		c-2.46-0.88-4.75-0.88-5.99-0.88c-17.43,0-20.59,16.72-20.59,25v55.1c0,1.58-0.53,2.29-2.11,2.29h-1.94
		C161.13,132.62,160.6,131.91,160.6,130.33z"/>
	<path class="st1" d="M209.54,89.49c0-25.88,17.6-45.24,43.48-45.24c16.72,0,29.22,8.63,35.91,21.83l0.35-17.43c0-1.58,0.53-2.29,2.11-2.29h1.76
		c1.58,0,2.11,0.7,2.11,2.29v81.68c0,1.58-0.35,2.29-1.94,2.29h-1.94c-1.58,0-2.11-0.7-2.11-2.29l-0.35-16.9
		c-6.51,13.2-19.19,21.3-35.91,21.3C227.14,134.73,209.54,115.54,209.54,89.49z M252.84,128.74c21.48,0,36.44-15.49,36.44-38.73
		c0-23.41-14.96-39.78-36.44-39.78c-21.83,0-37.49,16.02-37.49,39.25C215.34,112.9,231.01,128.74,252.84,128.74z"/>
	<path class="st1" d="M320.78,89.67c0-26.05,19.54-45.42,44.71-45.42c13.38,0,24.47,5.11,31.86,13.73c1.06,1.58,1.41,2.29,0.35,3.34l-0.88,0.88
		c-1.76,1.76-2.82,0.7-3.7-0.18c-5.98-6.51-13.73-11.79-27.46-11.79c-21.65,0-38.73,15.84-38.73,39.43
		c0,23.76,17.07,39.08,38.9,39.08c13.73,0,21.48-5.28,27.11-11.44c1.23-1.23,2.29-2.29,4.05-0.53l0.88,0.88
		c1.06,1.06,0.7,1.76-0.35,3.34c-7.39,8.63-18.48,13.73-32.39,13.73C340.14,134.73,320.78,115.54,320.78,89.67z"/>
	<path class="st1" d="M416.18,89.14c0-25.35,17.43-44.89,42.77-44.89s39.78,19.89,39.78,40.66c0,5.28-0.7,6.51-4.58,6.51h-72.17
		c1.23,20.77,14.61,37.49,39.43,37.49c12.85,0,21.3-4.58,27.64-9.86c0.7-0.7,1.94-0.88,2.46-0.18l1.06,1.06
		c1.41,1.76,0.35,2.46-0.7,3.52c-7.92,7.39-19.01,11.27-30.8,11.27C432.9,134.73,416.18,113.78,416.18,89.14z M493.28,85.62
		c-0.18-20.07-13.2-35.21-34.5-35.21c-20.95,0-35.03,14.26-36.44,35.21H493.28z"/>
	<path class="st0" d="M551.19,89.49c0-25.52,16.72-45.24,41.01-45.24c11.97,0,20.77,4.4,26.58,12.15v-47c0-1.58,1.06-2.64,2.64-2.64
		h19.19c1.58,0,2.64,1.06,2.64,2.64v120.58c0,1.58-1.23,2.64-2.82,2.64h-17.07c-1.58,0-2.64-1.06-2.64-2.64l-0.35-9.5
		c-5.99,8.8-15.31,14.26-28.16,14.26C567.91,134.73,551.19,115.19,551.19,89.49z M597.31,112.55c12.85,0,21.83-9.15,21.83-23.06
		c0-13.91-8.98-23.06-21.83-23.06s-22.36,9.33-22.36,23.06C574.95,103.4,584.46,112.55,597.31,112.55z"/>
	<path class="st0" d="M660.85,120.47c0-8.1,6.34-14.79,14.43-14.79c8.1,0,14.61,6.69,14.61,14.79c0,7.92-6.51,14.43-14.61,14.43
		C667.18,134.9,660.85,128.39,660.85,120.47z"/>
	<path class="st1" d="M745.51,15.21c0-2.82,2.46-5.1,4.93-5.1c2.64,0,4.75,2.29,4.75,5.1c0,2.64-2.11,4.93-4.75,4.93
		C747.97,20.14,745.51,17.85,745.51,15.21z M747.27,48.65c0-1.58,0.53-2.29,2.11-2.29h1.94c1.58,0,1.94,0.7,1.94,2.29v81.68
		c0,1.58-0.35,2.29-1.94,2.29h-1.94c-1.58,0-2.11-0.7-2.11-2.29V48.65z"/>
	<path class="st1" d="M780.71,122.58c-1.41-1.58-1.58-2.64-0.53-4.05l0.7-0.88c0.7-0.88,2.29-1.06,3.7,0.53c4.4,5.81,11.09,10.56,22,10.56
		c12.5,0,21.48-5.81,21.48-17.25c0-10.21-6.87-14.96-16.19-18.83l-9.68-4.05c-10.21-4.4-19.71-10.38-19.71-22.88
		c0-13.2,10.91-21.48,24.29-21.48c8.98,0,17.6,4.05,23.06,11.09c1.06,1.23,1.06,2.64-0.18,4.05c-1.76,1.76-2.64,1.58-4.22-0.18
		c-5.28-6.16-11.44-8.98-18.66-8.98c-8.98,0-18.31,4.4-18.31,14.96s7.22,14.08,18.31,18.66l6.34,2.64
		c11.62,4.75,20.77,10.91,20.95,24.47c0,15.31-13.03,23.76-27.81,23.76C792.68,134.73,784.41,127.33,780.71,122.58z M829.82,59.21
		l-0.18,0.18L829.82,59.21z"/>
</g>
</svg>
